<?xml version="1.0" encoding="UTF-8" standalone="no"?>
<!DOCTYPE svg PUBLIC "-//W3C//DTD SVG 1.1//EN" "http://www.w3.org/Graphics/SVG/1.1/DTD/svg11.dtd">
<svg width="100%" height="100%" viewBox="0 0 480 480" version="1.1" xmlns="http://www.w3.org/2000/svg" xmlns:xlink="http://www.w3.org/1999/xlink" xml:space="preserve" style="fill-rule:evenodd;clip-rule:evenodd;stroke-linejoin:round;stroke-miterlimit:1.41421;">
    <g transform="matrix(2.3897,0,0,2.3897,40.3417,45.6561)">
        <path d="M30.33,108.53L25.33,120.84L23.64,163L51.74,131.5L56.89,118.77C51.388,117.405 45.997,115.63 40.76,113.46C37.206,111.987 33.728,110.334 30.34,108.51L30.33,108.53ZM72.51,5.63C71.751,6.622 71.129,7.712 70.66,8.87L41,82.21C44.363,84.197 47.862,85.944 51.47,87.44C56.677,89.595 62.088,91.22 67.62,92.29L83.85,52.19L70.63,19.55C68.784,14.906 69.498,9.618 72.51,5.63L72.51,5.63Z" style="fill:rgb(255,181,0);fill-rule:nonzero;"/>
    </g>
    <g transform="matrix(2.3897,0,0,2.3897,40.3417,45.6561)">
        <path d="M95.17,5.64C98.162,9.635 98.857,14.917 97,19.55L83.84,52.19L100.07,92.29C105.602,91.219 111.013,89.594 116.22,87.44C119.828,85.944 123.327,84.197 126.69,82.21L97,8.87C96.534,7.716 95.915,6.63 95.16,5.64L95.17,5.64Z" style="fill:rgb(255,102,87);fill-rule:nonzero;"/>
    </g>
    <g transform="matrix(2.3897,0,0,2.3897,40.3417,45.6561)">
        <path d="M83.84,0C79.403,0.039 75.221,2.117 72.51,5.63C69.498,9.618 68.784,14.906 70.63,19.55L83.84,52.19L97,19.55C98.857,14.917 98.162,9.635 95.17,5.64C92.461,2.123 88.279,0.041 83.84,0L83.84,0Z" style="fill:rgb(255,204,69);fill-rule:nonzero;"/>
    </g>
    <g transform="matrix(2.3897,0,0,2.3897,40.3417,45.6561)">
        <path d="M137.35,108.53C133.962,110.354 130.484,112.006 126.93,113.48C121.693,115.65 116.302,117.425 110.8,118.79L115.95,131.52L144,163L142.29,120.82L137.29,108.51L137.35,108.53Z" style="fill:rgb(255,102,87);fill-rule:nonzero;"/>
    </g>
    <g transform="matrix(2.3897,0,0,2.3897,40.3417,45.6561)">
        <path d="M67.61,92.29L56.89,118.79C74.586,123.192 93.094,123.192 110.79,118.79L100.07,92.29C89.349,94.362 78.331,94.362 67.61,92.29L67.61,92.29ZM14.12,65C14.116,65 14.112,65 14.109,65C6.363,65 -0.011,71.374 -0.011,79.12C-0.011,82.861 1.476,86.453 4.12,89.1C11.858,96.829 20.685,103.385 30.32,108.56L41,82.21C34.838,78.569 29.159,74.164 24.1,69.1C21.452,66.444 17.85,64.953 14.1,64.96L14.12,65ZM153.56,65C149.81,64.993 146.208,66.484 143.56,69.14C138.506,74.199 132.835,78.6 126.68,82.24L137.33,108.56C146.965,103.385 155.792,96.829 163.53,89.1C166.174,86.453 167.661,82.861 167.661,79.12C167.661,71.374 161.287,65 153.541,65C153.538,65 153.534,65 153.53,65L153.56,65Z" style="fill:rgb(77,158,181);fill-rule:nonzero;"/>
    </g>
    <g transform="matrix(2.3897,0,0,2.3897,40.3417,45.6561)">
        <path d="M41,82.21L30.33,108.53C33.718,110.354 37.196,112.007 40.75,113.48C45.987,115.65 51.378,117.425 56.88,118.79L67.6,92.29C62.068,91.22 56.657,89.595 51.45,87.44C47.848,85.944 44.357,84.196 41,82.21L41,82.21Z" style="fill:rgb(255,194,0);fill-rule:nonzero;"/>
    </g>
    <g transform="matrix(2.3897,0,0,2.3897,40.3417,45.6561)">
        <path d="M126.69,82.21C123.327,84.197 119.828,85.944 116.22,87.44C111.013,89.594 105.602,91.219 100.07,92.29L110.79,118.79C116.292,117.425 121.683,115.65 126.92,113.48C130.474,112.006 133.952,110.354 137.34,108.53L126.69,82.21L126.69,82.21Z" style="fill:rgb(255,158,128);fill-rule:nonzero;"/>
    </g>
</svg>
